<svg width="1100" height="342" viewBox="0 0 1100 342" fill="none" xmlns="http://www.w3.org/2000/svg">
<path d="M99.2 186V139H123.2V283H100.4V270C91.6 280 78.8 286.2 64.4 286.2C32 286.2 5.6 260.6 5.6 229C5.6 197.4 32 171.8 64.4 171.8C78 171.8 90.2 177.2 99.2 186ZM64.8 264.6C84.2 264.6 100 248.6 100 229C100 209.4 84.2 193.4 64.8 193.4C45.4 193.4 29.6 209.4 29.6 229C29.6 248.6 45.4 264.6 64.8 264.6ZM192.18 171.8V193.4C175.58 193.4 162.18 206.8 162.18 223.4V283H138.18V225C138.18 195.6 161.98 171.8 191.38 171.8H192.18ZM283.842 249.6H310.442C301.842 271 280.242 286.2 255.042 286.2C222.442 286.2 195.842 260.6 195.842 229C195.842 197.4 222.442 171.8 255.042 171.8C287.842 171.8 314.242 197.4 314.242 229C314.242 231.8 314.042 234.4 313.642 237H220.842C224.442 252.8 238.442 264.6 255.042 264.6C267.042 264.6 277.642 258.6 283.842 249.6ZM255.042 193.4C239.042 193.4 225.642 204.2 221.242 219H288.842C284.642 204.2 271.042 193.4 255.042 193.4ZM380.72 171.8C413.32 171.8 439.52 197.4 439.52 229V283H416.72V268.6C408.32 279.4 395.32 286.2 380.72 286.2C348.32 286.2 321.92 260.6 321.92 229C321.92 197.4 348.32 171.8 380.72 171.8ZM381.12 264.6C400.52 264.6 416.32 248.6 416.32 229C416.32 209.4 400.52 193.4 381.12 193.4C361.72 193.4 345.92 209.4 345.92 229C345.92 248.6 361.72 264.6 381.12 264.6ZM627.57 221.8V283H603.57V221.4C603.57 206 591.97 193.4 577.57 193.4C563.17 193.4 551.57 206 551.57 221.4V283H527.57V221.4C527.57 206 515.97 193.4 501.57 193.4C487.17 193.4 475.57 206 475.57 221.4V283H451.57V221.8C451.57 194.2 473.97 171.8 501.57 171.8C516.77 171.8 530.57 178.8 539.57 189.6C548.57 178.8 562.37 171.8 577.57 171.8C605.17 171.8 627.57 194.2 627.57 221.8ZM637.163 250.8H661.163C661.163 259 669.163 265.8 679.163 265.8C689.163 265.8 697.163 259.2 697.163 251.2C697.163 244.2 690.963 239 680.763 237C657.763 232.6 638.963 222 638.963 204.8C638.963 186.6 655.363 171.8 676.963 171.8C698.963 171.8 716.963 187 716.963 205.8H692.963C692.963 198.2 685.763 192.2 676.963 192.2C669.163 192.2 662.963 197.4 662.963 203.8C662.963 211.2 675.763 216.4 689.163 218.8C706.363 222 721.163 232.2 721.163 250.2C721.163 270 702.363 286.2 679.163 286.2C655.963 286.2 637.163 270.4 637.163 250.8ZM788.894 171.8C821.294 171.8 847.694 197.4 847.694 229C847.694 260.6 821.294 286.2 788.894 286.2C775.094 286.2 762.694 280.2 754.094 270.8V319H730.094V229C730.094 197.4 756.494 171.8 788.894 171.8ZM788.494 264.6C807.894 264.6 823.694 248.6 823.694 229C823.694 209.4 807.894 193.4 788.494 193.4C769.094 193.4 753.294 209.4 753.294 229C753.294 248.6 769.094 264.6 788.494 264.6ZM913.744 171.8C946.344 171.8 972.544 197.4 972.544 229V283H949.744V268.6C941.344 279.4 928.344 286.2 913.744 286.2C881.344 286.2 854.944 260.6 854.944 229C854.944 197.4 881.344 171.8 913.744 171.8ZM914.144 264.6C933.544 264.6 949.344 248.6 949.344 229C949.344 209.4 933.544 193.4 914.144 193.4C894.744 193.4 878.944 209.4 878.944 229C878.944 248.6 894.744 264.6 914.144 264.6ZM1066.99 283V223.6C1066.99 207 1053.99 193.4 1037.79 193.4C1021.59 193.4 1008.59 207 1008.59 223.6V283H984.594V225C984.594 195.6 1008.39 171.8 1037.79 171.8C1067.19 171.8 1090.99 195.6 1090.99 225V283H1066.99Z" fill="black"/>
<path d="M731.699 175V225L752.699 186V175H731.699Z" fill="black" stroke="black" stroke-width="3"/>
<path d="M4.4 78V20.4H14.32V78H4.4ZM41.07 78H31.15V20.4H40.43L71.23 62.24V20.4H81.15V78H71.63L41.07 36.4V78ZM120.858 29.2V78H110.938V29.2H93.9781V20.4H137.818V29.2H120.858ZM181.948 55.84L197.228 78H185.628L171.308 56.4H160.508V78H150.588V20.4H177.388C187.468 20.4 195.628 28.48 195.628 38.4C195.628 46.8 189.788 53.84 181.948 55.84ZM160.508 29.2V47.6H176.268C181.468 47.6 185.708 43.52 185.708 38.4C185.708 33.28 181.468 29.2 176.268 29.2H160.508ZM238.003 19.12C254.883 19.12 268.563 32.56 268.563 49.2C268.563 65.84 254.883 79.28 238.003 79.28C221.123 79.28 207.443 65.84 207.443 49.2C207.443 32.56 221.123 19.12 238.003 19.12ZM238.003 70.48C249.363 70.48 258.643 60.96 258.643 49.2C258.643 37.44 249.363 27.92 238.003 27.92C226.643 27.92 217.363 37.44 217.363 49.2C217.363 60.96 226.643 70.48 238.003 70.48ZM304.908 78H283.228V20.4H304.908C320.748 20.4 333.708 33.28 333.708 49.2C333.708 65.12 320.748 78 304.908 78ZM293.148 69.2H304.268C315.068 69.2 323.868 60.24 323.868 49.2C323.868 38.16 315.068 29.2 304.268 29.2H293.148V69.2ZM396.178 20.4V56.56C396.178 69.12 385.298 79.28 371.858 79.28C358.418 79.28 347.538 69.12 347.538 56.56V20.4H357.458V56.08C357.458 64 363.938 70.48 371.858 70.48C379.778 70.48 386.258 64 386.258 56.08V20.4H396.178ZM458.197 60.72H469.077C464.437 71.6 453.557 79.28 440.757 79.28C423.797 79.28 410.037 65.84 410.037 49.2C410.037 32.56 423.797 19.12 440.757 19.12C453.637 19.12 464.677 26.88 469.237 37.84H458.357C454.677 31.84 448.197 27.92 440.757 27.92C429.237 27.92 419.957 37.44 419.957 49.2C419.957 60.96 429.237 70.48 440.757 70.48C448.117 70.48 454.517 66.56 458.197 60.72ZM483.244 78V20.4H493.164V78H483.244ZM519.914 78H509.994V20.4H519.274L550.074 62.24V20.4H559.994V78H550.474L519.914 36.4V78ZM603.942 54V46.48H635.942V49.2C635.942 65.84 622.262 79.28 605.382 79.28C588.422 79.28 574.662 65.84 574.662 49.2C574.662 32.56 588.422 19.12 605.382 19.12C618.182 19.12 629.222 26.88 633.862 37.84H622.982C619.302 31.92 612.742 27.92 605.382 27.92C593.862 27.92 584.582 37.44 584.582 49.2C584.582 60.96 593.862 70.48 605.382 70.48C615.142 70.48 623.382 63.44 625.462 54H603.942Z" fill="black"/>
</svg>
